<svg id="Layer_1" data-name="Layer 1" xmlns="http://www.w3.org/2000/svg" viewBox="0 0 160.44 35.54"><defs><style>.cls-1{fill:#cd040b;}</style></defs><title>Logo</title><polygon class="cls-1" points="156.9 0 148.16 18.75 144.85 11.64 141.28 11.64 146.71 23.27 149.59 23.27 160.44 0 156.9 0"/><path d="M119.3,34.82h7.06V21.91c0-2.94,1.72-5,4.26-5s3.71,1.72,3.71,4.17V34.82h7.06V19.7c0-5.12-3.08-8.74-8.06-8.74a8,8,0,0,0-7.06,3.85h-.14V11.64H119.3ZM105.45,11c-7.38,0-12.31,5.3-12.31,12.27a12.32,12.32,0,0,0,24.63,0C117.76,16.3,112.83,11,105.45,11Zm0,19.33c-3.35,0-5.12-2.81-5.12-7.06s1.77-7.06,5.12-7.06,5.21,2.76,5.21,7.06S108.75,30.33,105.4,30.33ZM73,34.82H92.86V29.25H81.63v-.14l10.73-12V11.64H73V17.2H83.9v.14L73,29.47Zm-9.06,0h7.11V11.64H64Zm-16.48,0h7.06V24.18c0-4.84,2.9-7,7.33-6.38H62V11.68a4,4,0,0,0-1.45-.18c-2.76,0-4.62,1.27-6.2,4h-.14V11.64H47.49Zm-13-4.44c-3.12,0-5-2-5.39-5.16H45.82c0-5-1.27-9-4-11.45A11,11,0,0,0,34,11c-7,0-11.82,5.3-11.82,12.22S26.8,35.5,34.45,35.5a12.12,12.12,0,0,0,7.11-2.08,9.18,9.18,0,0,0,3.89-5.48H38.67A4.18,4.18,0,0,1,34.5,30.38ZM34.14,16c2.49,0,4.21,1.86,4.48,4.57H29.16C29.7,17.84,31.2,16,34.14,16ZM8.06,34.82h7.43l8.06-23.18H16.44l-4.53,14.9h-.09L7.29,11.64H0ZM64,3.4h7.11V9.69H64Z"/></svg>